<?xml version="1.0" encoding="UTF-8"?>
<svg version="1.1" xmlns="http://www.w3.org/2000/svg" width="512" height="512">
<path d="M0 0 C2.87112941 2.39260784 4.0069949 4.35315221 5.25 7.875 C5.17711109 11.44655667 4.45658079 13.49626855 2.75 16.625 C-1.32749055 20.29474149 -6.02311144 20.46762945 -11.3125 21.2578125 C-17.93190952 22.36777446 -22.99714512 24.03107459 -27.03125 29.6640625 C-29.77114118 34.57629597 -30.42837797 39.32665284 -30.75 44.875 C-29.80962891 44.63555664 -28.86925781 44.39611328 -27.90039062 44.14941406 C-18.16371821 41.68440596 -8.40150151 39.35534336 1.3984375 37.15527344 C2.98131685 36.79833677 4.56334059 36.43758669 6.14453125 36.07324219 C8.47996037 35.53525258 10.81770002 35.00861074 13.15625 34.484375 C14.20020935 34.24071198 14.20020935 34.24071198 15.26525879 33.99212646 C20.9084844 32.74905257 26.68283384 31.7588408 32.125 34.125 C35.44862841 36.86210575 36.10361417 38.6795157 36.625 42.9375 C36.189534 47.50989301 34.83031487 51.18227275 33.125 55.421875 C32.08202184 57.91185458 32.08202184 57.91185458 32.25 60.875 C32.80236328 61.10050537 33.35472656 61.32601074 33.92382812 61.55834961 C79.07555655 80.11750559 116.01757128 110.66902847 136.25 155.875 C136.25 156.535 136.25 157.195 136.25 157.875 C136.78238281 157.71386719 137.31476563 157.55273438 137.86328125 157.38671875 C164.48264952 151.67945649 197.88665463 164.0046605 220.0546875 178.015625 C251.57597427 198.66275607 271.98693221 229.83876162 279.81640625 266.52929688 C281.40990855 274.95778583 281.65030625 283.32491092 281.625 291.875 C281.62368576 292.9631601 281.62368576 292.9631601 281.62234497 294.07330322 C281.47701115 330.65820054 267.05471585 361.4699799 242.25 387.875 C241.72535156 388.46410156 241.20070313 389.05320312 240.66015625 389.66015625 C219.271633 412.6813912 185.68067118 425.42343905 154.8112793 426.99951172 C119.13042734 428.15455689 85.2777085 417.60355159 58.25 393.875 C57.43660156 393.18277344 56.62320312 392.49054688 55.78515625 391.77734375 C51.58926956 388.15394077 47.9864501 384.60375459 44.83203125 380.02734375 C43.21034787 378.59464623 43.21034787 378.59464623 40.5390625 378.9921875 C36.78050594 380.00101622 33.34904844 381.47279221 29.8125 383.0625 C22.96812777 385.99471718 16.07478625 388.23319619 8.875 390.125 C8.00431885 390.35856201 7.1336377 390.59212402 6.23657227 390.83276367 C-9.38184507 394.78648919 -24.85850201 396.43668527 -40.9375 396.3125 C-42.20385284 396.30793793 -42.20385284 396.30793793 -43.49578857 396.30328369 C-57.55270578 396.22879636 -71.04749508 395.20742485 -84.75 391.875 C-86.09650635 391.55354004 -86.09650635 391.55354004 -87.47021484 391.22558594 C-118.36955287 383.62929135 -145.73515493 368.60995257 -169.75 347.875 C-170.62269531 347.12476563 -171.49539062 346.37453125 -172.39453125 345.6015625 C-177.62718045 341.00436245 -182.30140317 336.22469853 -186.75 330.875 C-187.88888672 329.56789063 -187.88888672 329.56789063 -189.05078125 328.234375 C-215.58528516 297.36686501 -231.23926759 258.74317377 -231.125 217.9375 C-231.12412384 217.17009491 -231.12324768 216.40268982 -231.12234497 215.61203003 C-231.02232189 188.95432193 -224.5124381 165.26414775 -211.75 141.875 C-211.18539062 140.81925781 -210.62078125 139.76351562 -210.0390625 138.67578125 C-203.49826587 126.92998448 -194.98437715 116.60568733 -185.75 106.875 C-185.30430664 106.4020752 -184.85861328 105.92915039 -184.39941406 105.44189453 C-165.89947756 85.93252429 -140.13115573 67.50593914 -113.75 60.875 C-114.1109375 59.9571875 -114.471875 59.039375 -114.84375 58.09375 C-119.76522843 45.07917372 -119.76522843 45.07917372 -118.75 38.875 C-116.6255173 35.43187286 -115.60147359 34.15882453 -111.75 32.875 C-104.90138442 32.4578966 -98.7628025 33.73396527 -92.1015625 35.24609375 C-91.00782318 35.48787857 -89.91408386 35.72966339 -88.78720093 35.97877502 C-86.48860606 36.48850952 -84.19089619 37.00224962 -81.89404297 37.51977539 C-78.36744069 38.31420286 -74.83833959 39.09662384 -71.30859375 39.87695312 C-69.07276263 40.37430805 -66.83708006 40.87233133 -64.6015625 41.37109375 C-63.54329254 41.60654404 -62.48502258 41.84199432 -61.39468384 42.08457947 C-60.41961884 42.30473221 -59.44455383 42.52488495 -58.43994141 42.75170898 C-57.58026764 42.94490219 -56.72059387 43.1380954 -55.83486938 43.33714294 C-53.75 43.875 -53.75 43.875 -51.75 44.875 C-51.78480469 44.19695312 -51.81960937 43.51890625 -51.85546875 42.8203125 C-52.20326484 30.86275185 -48.91243322 20.49390976 -40.640625 11.609375 C-31.11750078 2.74301797 -13.05963668 -5.34257864 0 0 Z " fill="#062A74" transform="translate(230.75,43.125)"/>
<path d="M0 0 C-0.78761719 1.01835938 -1.57523437 2.03671875 -2.38671875 3.0859375 C-8.45243757 10.95728748 -14.43057913 18.88185592 -20.25 26.9375 C-20.81033936 27.71206543 -21.37067871 28.48663086 -21.94799805 29.28466797 C-26.46095266 35.46024854 -26.46095266 35.46024854 -27 43 C-25.68107705 46.05434788 -24.84497402 47.58584184 -21.83276367 49.06225586 C-18.52016066 50.15884365 -15.31281576 50.72264461 -11.86328125 51.25390625 C-10.8440583 51.41257423 -10.8440583 51.41257423 -9.804245 51.57444763 C-8.37001134 51.79650787 -6.93533067 52.01569776 -5.50024414 52.23217773 C-3.3356808 52.55899999 -1.17268433 52.89490498 0.99023438 53.23242188 C6.9078867 54.1449672 12.78915746 55.02490552 18.765625 55.46484375 C22.37194672 55.7974381 24.44777689 56.32964448 27.0625 59 C27.70316406 59.6290625 28.34382812 60.258125 29.00390625 60.90625 C29.66261719 61.5971875 30.32132813 62.288125 31 63 C32.49867783 64.501321 33.9987174 66.0012837 35.5 67.5 C36.25539062 68.26570313 37.01078125 69.03140625 37.7890625 69.8203125 C39.75892811 71.76233548 41.77153633 73.58061671 43.875 75.375 C48.36358223 79.21332484 52.45643518 83.42583287 56.58203125 87.64453125 C59.61109312 90.5952975 61.35881142 91.88751078 65.5625 92.625 C75.29168445 92.23794384 83.77838741 80.38648619 90.11523438 73.90039062 C94.01563531 69.91426659 98.01198759 66.14563451 102.26586914 62.53735352 C104.12814201 60.96408017 104.12814201 60.96408017 105.92578125 58.6875 C109.2600905 55.97484163 113.01856247 55.67867323 117.1875 55 C118.54766235 54.75854248 118.54766235 54.75854248 119.93530273 54.51220703 C125.21516792 53.58911306 130.50930612 52.75835979 135.8046875 51.9296875 C136.92979736 51.75308594 138.05490723 51.57648438 139.21411133 51.39453125 C141.41580504 51.05291957 143.61876403 50.71934836 145.82299805 50.39453125 C146.83144775 50.24113281 147.83989746 50.08773437 148.87890625 49.9296875 C149.7716626 49.79804199 150.66441895 49.66639648 151.58422852 49.53076172 C154.85601483 48.81192762 157.27125424 48.02024406 159.25 45.25 C160.24398378 42.26804866 160.29514927 40.1444749 160 37 C158.70774183 34.72812677 157.46219174 32.85455951 155.875 30.8125 C155.22132446 29.93476929 155.22132446 29.93476929 154.55444336 29.03930664 C153.58585181 27.74030377 152.61113705 26.44585114 151.63134766 25.15527344 C149.20508073 21.9497834 146.82124591 18.71339738 144.43603516 15.47729492 C143.20651025 13.81053083 141.97322962 12.14652935 140.73583984 10.4855957 C137.96381104 6.75113287 135.28117294 3.06359481 133 -1 C167.39839737 8.82811353 199.8879194 36.24659119 217.41015625 67.16015625 C223 77.35708017 223 77.35708017 223 80 C222.08863281 80.24492187 221.17726563 80.48984375 220.23828125 80.7421875 C197.86797537 87.07035883 178.76107311 97.93267992 162 114 C161.18015625 114.75667969 160.3603125 115.51335937 159.515625 116.29296875 C137.7363489 137.02386355 123.07925092 168.04997932 121.87353516 198.15795898 C121.23690754 227.66382428 125.77555514 251.47071853 139 278 C126.50767075 283.61873879 114.10456628 287.59637075 100.75 290.6875 C99.36554688 291.00956421 99.36554688 291.00956421 97.953125 291.33813477 C76.83912755 296.08385456 54.11800565 295.41025565 33 291 C32.18128418 290.83371094 31.36256836 290.66742188 30.51904297 290.49609375 C-13.87585442 281.21672677 -54.07670526 253.10889463 -78.84619141 215.25488281 C-87.32645923 201.95973974 -93.36459388 188.03811986 -98 173 C-98.35191406 171.96617187 -98.70382813 170.93234375 -99.06640625 169.8671875 C-109.382185 138.18609292 -102.54928658 101.65373049 -87.8359375 72.6640625 C-77.89186575 53.83930239 -24.97602537 -12.48801269 0 0 Z " fill="#FC5F50" transform="translate(123,125)"/>
<path d="M0 0 C1.07507813 0.26683594 2.15015625 0.53367188 3.2578125 0.80859375 C32.46664443 8.88228808 56.81304475 28.7334563 71.8125 54.875 C85.8893883 80.35055362 90.86352307 111.68869796 83 140 C74.16602759 169.78707042 55.61989409 195.67272289 28.22045898 210.95947266 C1.97437966 225.02585969 -27.90153028 229.61239695 -57 222 C-58.08667969 221.73316406 -59.17335938 221.46632813 -60.29296875 221.19140625 C-79.06882485 216.04576968 -95.14040687 205.37295012 -109 192 C-109.7321875 191.33097656 -110.464375 190.66195312 -111.21875 189.97265625 C-123.72867485 178.23219106 -131.55923214 162.22933835 -137.375 146.3125 C-137.61371826 145.67280273 -137.85243652 145.03310547 -138.09838867 144.37402344 C-141.75317684 133.82602721 -142.36687741 122.76289906 -142.3125 111.6875 C-142.30831055 110.50978027 -142.30412109 109.33206055 -142.29980469 108.11865234 C-142.18271787 99.05688036 -141.31690407 90.7661219 -139 82 C-138.73316406 80.91460937 -138.46632813 79.82921875 -138.19140625 78.7109375 C-130.51146929 50.6535678 -109.96419963 25.51647307 -84.91503906 11.04052734 C-79.14586985 7.90587676 -73.09631384 5.41738989 -67 3 C-65.78763672 2.50886719 -65.78763672 2.50886719 -64.55078125 2.0078125 C-62.38356913 1.20697602 -60.23726837 0.57841572 -58 0 C-56.42412109 -0.41572266 -56.42412109 -0.41572266 -54.81640625 -0.83984375 C-37.03117642 -4.85586339 -17.63751268 -4.61934856 0 0 Z " fill="#66CBD0" transform="translate(406,224)"/>
<path d="M0 0 C16.17622664 12.56632067 27.10049458 30.02876895 30.55859375 50.26953125 C33.06006928 71.41032005 29.13678729 92.83864782 16 110 C1.78226979 127.66376113 -17.68474417 138.59612612 -40.36035156 141.27929688 C-54.37684347 142.33692111 -68.55814465 139.65339858 -81 133 C-81.91910156 132.53078125 -82.83820313 132.0615625 -83.78515625 131.578125 C-101.76141639 121.83615176 -115.08260928 105.60681776 -121.32421875 86.06640625 C-127.37167977 64.89776023 -124.86597892 43.03238822 -114.31640625 23.8203125 C-103.5960885 5.51238695 -85.98839411 -7.32493916 -65.65698242 -12.90039062 C-42.929852 -18.55966475 -19.16097795 -13.30972256 0 0 Z " fill="#FEFEFE" transform="translate(424,272)"/>
<path d="M0 0 C1.2980966 3.89428981 0.38716928 5.09910426 -1.125 8.875 C-4.70585887 18.35203699 -6.93943247 28.0961582 -9 38 C-9.25209229 39.16305664 -9.25209229 39.16305664 -9.50927734 40.34960938 C-14.88633738 66.1372092 -14.06301555 95.85985449 -8.53808594 121.5 C-8.04605295 123.78603349 -7.61235746 126.07435505 -7.1953125 128.375 C2.88564788 180.43830243 39.01042244 226.76876181 82.09765625 256.109375 C89.09434601 260.57103224 96.41803923 264.4355509 103.75 268.3125 C104.72074463 268.82876953 105.69148926 269.34503906 106.69165039 269.87695312 C112.36148495 272.82846683 117.87813019 275.15462155 124 277 C124 277.33 124 277.66 124 278 C105.12690397 280.49229383 85.62750035 279.8901419 67 276 C66.18128418 275.83371094 65.36256836 275.66742188 64.51904297 275.49609375 C20.12414558 266.21672677 -20.07670526 238.10889463 -44.84619141 200.25488281 C-53.32645923 186.95973974 -59.36459388 173.03811986 -64 158 C-64.35191406 156.96617187 -64.70382813 155.93234375 -65.06640625 154.8671875 C-75.382185 123.18609292 -68.54928658 86.65373049 -53.8359375 57.6640625 C-41.32836342 33.98642948 -21.94163055 14.96315338 0 0 Z " fill="#DA4A85" transform="translate(89,140)"/>
<path d="M0 0 C-0.53109375 1.17433594 -1.0621875 2.34867188 -1.609375 3.55859375 C-6.33090359 14.23364515 -9.76317066 24.55046678 -12 36 C-12.29390625 37.27230469 -12.29390625 37.27230469 -12.59375 38.5703125 C-13.09469793 41.56636646 -13.03812302 44.46332483 -13.0625 47.5 C-13.51840173 54.67484694 -15.94682687 58.85017568 -19.9296875 64.703125 C-30.06804091 80.84797458 -31.64267797 102.51620755 -27.5 120.8125 C-22.10544851 142.08473882 -8.48027221 158.90706308 10.25 170.10546875 C20.25711638 175.45513364 32.4392624 179.35428731 43.81640625 178.921875 C64.73398138 178.35594846 64.73398138 178.35594846 73.5703125 182.55859375 C88.06399055 188.64990036 104.45721982 189.81273759 120 190 C108.24978125 202.22939434 90.33154553 210.03704515 74 214 C72.62521484 214.33644531 72.62521484 214.33644531 71.22265625 214.6796875 C54.38307704 217.97979296 35.56838078 217.33442351 19 213 C17.91332031 212.73316406 16.82664062 212.46632813 15.70703125 212.19140625 C-3.06882485 207.04576968 -19.14040687 196.37295012 -33 183 C-33.7321875 182.33097656 -34.464375 181.66195312 -35.21875 180.97265625 C-47.72867485 169.23219106 -55.55923214 153.22933835 -61.375 137.3125 C-61.61371826 136.67280273 -61.85243652 136.03310547 -62.09838867 135.37402344 C-65.75317684 124.82602721 -66.36687741 113.76289906 -66.3125 102.6875 C-66.30831055 101.50978027 -66.30412109 100.33206055 -66.29980469 99.11865234 C-66.18271787 90.05688036 -65.31690407 81.7661219 -63 73 C-62.73316406 71.91460937 -62.46632813 70.82921875 -62.19140625 69.7109375 C-53.81174931 39.09725746 -31.52456957 15.48199539 -4.77734375 -0.3125 C-3 -1 -3 -1 0 0 Z " fill="#27A1CB" transform="translate(330,233)"/>
<path d="M0 0 C27.94514191 5.14386205 27.94514191 5.14386205 41 9 C41.2475 10.2375 41.495 11.475 41.75 12.75 C42.74154063 16.55427834 43.51785298 18.8571403 47 21 C50.12932786 21.60511865 52.8760603 21.65464913 56 21 C60.17743642 17.55361495 60.36571498 14.17796139 61 9 C74.85487016 5.25374357 88.89495778 2.61563283 103 0 C102.53703999 1.57217052 102.0717319 3.14364969 101.60546875 4.71484375 C101.34660889 5.59003662 101.08774902 6.46522949 100.82104492 7.36694336 C99.85475095 10.46580761 98.73593449 13.48328491 97.55078125 16.50390625 C96.52151753 21.16844181 95.92358448 25.6772367 97.98510742 30.12573242 C99.37460067 32.2780244 100.86156441 34.29288885 102.4375 36.3125 C102.97793945 37.03945068 103.51837891 37.76640137 104.07519531 38.51538086 C105.69846874 40.69147705 107.34803182 42.84565246 109 45 C109.9361811 46.25327978 110.86995996 47.50835933 111.80078125 48.765625 C113.84737158 51.525691 115.91566784 54.26826164 118 57 C115.26549231 58.49639189 112.95847527 59.32190256 109.875 59.74609375 C109.09165283 59.85912842 108.30830566 59.97216309 107.5012207 60.08862305 C106.67581787 60.20375244 105.85041504 60.31888184 105 60.4375 C88.06697545 62.73408256 88.06697545 62.73408256 75 73 C73.7901392 74.08443247 72.56044169 75.14711618 71.3125 76.1875 C68.6640016 78.44635848 66.17838234 80.80614768 63.74609375 83.29296875 C63.17012451 83.88118408 62.59415527 84.46939941 62.00073242 85.07543945 C60.84951919 86.25876015 59.70491902 87.44855713 58.56762695 88.64526367 C53.61448039 93.7362265 53.61448039 93.7362265 50 94 C48.29589844 92.84765625 48.29589844 92.84765625 46.609375 91.0625 C45.98611328 90.41796875 45.36285156 89.7734375 44.72070312 89.109375 C43.74520508 88.06523437 43.74520508 88.06523437 42.75 87 C41.40287045 85.60240162 40.05393254 84.20654386 38.703125 82.8125 C38.06052734 82.14476562 37.41792969 81.47703125 36.75585938 80.7890625 C34.19707453 78.18189129 31.48026651 75.81096675 28.66796875 73.484375 C27 72 27 72 25.42578125 70.140625 C19.19582765 62.83966242 10.76676659 62.54680798 1.78125 61.23046875 C0.87850342 61.09801758 -0.02424316 60.96556641 -0.9543457 60.82910156 C-2.75852731 60.57060158 -4.5644001 60.32361066 -6.37182617 60.08886719 C-7.616698 59.91919434 -7.616698 59.91919434 -8.88671875 59.74609375 C-10.00373169 59.60192017 -10.00373169 59.60192017 -11.14331055 59.45483398 C-13 59 -13 59 -15 57 C-12.79225409 53.99956731 -10.58369377 50.999735 -8.375 48 C-7.44880859 46.74123047 -7.44880859 46.74123047 -6.50390625 45.45703125 C-5.89160156 44.62558594 -5.27929688 43.79414063 -4.6484375 42.9375 C-4.03967773 42.10992187 -3.43091797 41.28234375 -2.80371094 40.4296875 C-0.62121589 37.48975914 1.60565426 34.58503294 3.84912109 31.69140625 C6.41117524 27.92604538 6.28579034 24.41188833 6 20 C5.19636998 17.00439983 4.1197757 14.14023186 3 11.25 C0 3.34459459 0 3.34459459 0 0 Z " fill="#AFD752" transform="translate(138,100)"/>
<path d="M0 0 C0.33 0 0.66 0 1 0 C1.03738281 1.31871094 1.07476562 2.63742187 1.11328125 3.99609375 C2.39341506 41.64542865 15.51468875 75.05238564 43.375 101.25 C53.33106693 109.9774459 64.45378603 116.64698572 76 123 C76 123.33 76 123.66 76 124 C60.22787241 127.82637415 42.1670044 124.57593818 28 117 C27.08089844 116.53078125 26.16179687 116.0615625 25.21484375 115.578125 C7.23858361 105.83615176 -6.08260928 89.60681776 -12.32421875 70.06640625 C-18.55875524 48.24291775 -15.37739062 27.12423133 -4.90234375 7.328125 C-3.3993182 4.69860186 -1.95921195 2.30221938 0 0 Z " fill="#D1DCFC" transform="translate(315,288)"/>
<path d="M0 0 C2.43763428 1.82822571 3.4195861 3.56383904 4.75 6.3125 C4.89672852 9.61132812 4.89672852 9.61132812 4.62890625 13.34375 C3.37998778 27.73387681 3.37998778 27.73387681 7.50244141 41.01757812 C11.66368955 45.08389636 16.46145908 47.85090144 21.77294922 50.17285156 C24.19147062 51.56698072 25.31749796 52.92591522 26.75 55.3125 C27.39221857 60.36997126 27.39221857 60.36997126 26.75 63.3125 C23.87349939 66.87027707 21.6709715 69.04010227 17.10546875 69.6875 C12.45112607 69.16734063 9.77050466 67.0450664 6.0625 64.3125 C5.01618408 63.56407837 5.01618408 63.56407837 3.94873047 62.80053711 C2.54021659 61.79068672 1.1358479 60.77502778 -0.26416016 59.75341797 C-2.04970831 58.4578309 -3.85145351 57.19299986 -5.66796875 55.94140625 C-13.53876014 50.44120989 -13.53876014 50.44120989 -15.25 46.3125 C-15.51742554 44.30860901 -15.51742554 44.30860901 -15.54052734 42.17407227 C-15.55328705 41.36966202 -15.56604675 40.56525177 -15.57919312 39.73646545 C-15.58141876 38.87597092 -15.58364441 38.01547638 -15.5859375 37.12890625 C-15.5959227 35.79012672 -15.5959227 35.79012672 -15.60610962 34.42430115 C-15.61622249 32.53899188 -15.62092706 30.65364691 -15.62060547 28.76831055 C-15.62497941 25.88855911 -15.66131466 23.01033985 -15.69921875 20.13085938 C-15.7050871 18.29688023 -15.70905637 16.46289382 -15.7109375 14.62890625 C-15.72530853 13.77043594 -15.73967957 12.91196564 -15.75448608 12.02748108 C-15.72323801 7.92643939 -15.58266426 5.84016405 -13.34619141 2.29272461 C-9.4122046 -1.42362375 -5.15719622 -1.57580995 0 0 Z " fill="#6A66F7" transform="translate(383.25,291.6875)"/>
</svg>
